<svg xmlns="http://www.w3.org/2000/svg" viewBox="0 0 236.57 328.35"><defs><style>.cls-1{fill:#414042;}.cls-2{fill:#fff;}.cls-3{fill:#00a651;}</style></defs><g id="Layer_2" data-name="Layer 2"><g id="Layer_1-2" data-name="Layer 1"><path class="cls-1" d="M236.57,53.21V302.43a25.91,25.91,0,0,1-25.91,25.92H25.9A25.91,25.91,0,0,1,0,302.44V53.2A25.91,25.91,0,0,1,25.9,27.3H37a7.44,7.44,0,0,1,7.45,7.45v2.63A25.91,25.91,0,0,0,70.34,63.3h95.88a25.91,25.91,0,0,0,25.91-25.91V34.75a7.44,7.44,0,0,1,7.45-7.45h11.08A25.91,25.91,0,0,1,236.57,53.21Z"/><path class="cls-1" d="M182.11,27.3h0a27.29,27.29,0,0,1-27.29,27.29H81.75A27.29,27.29,0,0,1,54.46,27.3h0A27.29,27.29,0,0,1,81.75,0h73.06A27.3,27.3,0,0,1,182.11,27.3Z"/><rect class="cls-2" x="72.39" y="94.94" width="121.85" height="9.49" rx="4.75"/><rect class="cls-2" x="72.39" y="181.98" width="121.85" height="9.49" rx="4.75"/><rect class="cls-2" x="72.39" y="225.49" width="121.85" height="9.49" rx="4.75"/><rect class="cls-2" x="72.39" y="138.46" width="121.85" height="9.49" rx="4.75"/><rect class="cls-2" x="72.39" y="269.01" width="121.85" height="9.49" rx="4.75"/><path class="cls-3" d="M24.34,95.24s11,3.31,17.51,17.51c10.2-29.14,26.33-34.56,30.49-35.49a.06.06,0,1,0,0-.12C68.4,77.53,54,80.43,41,101.74,41,101.74,34,95.11,24.34,95.24Z"/><path class="cls-3" d="M24.34,138.76s11,3.31,17.51,17.5c10.2-29.14,26.33-34.55,30.49-35.48a.06.06,0,1,0,0-.12C68.4,121.05,54,124,41,145.25,41,145.25,34,138.62,24.34,138.76Z"/><path class="cls-3" d="M24.34,269.31s11,3.31,17.51,17.5c10.2-29.14,26.33-34.55,30.49-35.48a.06.06,0,1,0,0-.12C68.4,251.6,54,254.5,41,275.8,41,275.8,34,269.17,24.34,269.31Z"/><circle class="cls-2" cx="44.7" cy="186.72" r="8.9"/><circle class="cls-2" cx="44.7" cy="230.24" r="8.9"/></g></g></svg>